<?xml version="1.0" encoding="UTF-8"?>
<svg class="iconify iconify--gis" width="710.79" height="766.08" aria-hidden="true" preserveAspectRatio="xMidYMid" role="img" version="1.1" viewBox="0 0 88.849 95.759" xml:space="preserve" xmlns="http://www.w3.org/2000/svg"><defs><clipPath id="a"><rect x="57" y="465" width="245" height="214"/></clipPath></defs><path transform="translate(-1.9623 -2.4656)" d="m20.483 91.28-1.4886-49.714 33.157-38.513 37.777 55.377-0.5229 26.115-17.946 12.793-51.534-6.2101z"/><g transform="matrix(.36222 0 0 .39117 0 11.393)"><g transform="translate(-57,-465)" clip-path="url(#a)" stroke-width=".95248"><path transform="matrix(1.102 0 0 1 -505.62 465)" d="m2.0264 259.71h29.382l-1.3509 6.079h-10.807l-6.7545 32.084h-7.7677l6.7545-32.084h-10.807zm53.361-2.702h7.43l-3.3772 15.536c2.0263-1.689 4.7281-3.377 7.7677-3.377 5.4036 0 9.1185 3.377 9.1185 9.118 0 2.026-0.6754 4.391-1.0131 6.079l-3.0396 13.509h-7.4299l2.7018-13.171c0.3377-2.026 0.6754-3.715 0.6754-5.741 0-2.364-1.6886-4.053-4.0527-4.053-5.0659 0-6.7545 4.728-7.7677 8.781l-3.0395 14.184h-7.43zm50.997 29.045c0 5.066 2.701 7.092 7.767 7.092 3.04 0 5.742-0.675 8.443-2.026l-1.013 5.741c-2.701 1.013-6.079 1.689-8.781 1.689-8.105 0-13.509-4.053-13.509-12.158 0-8.781 6.7546-17.224 15.874-17.224 6.754 0 11.482 3.377 11.482 10.807 0 2.026-0.338 4.052-0.675 6.417h-19.588zm13.171-5.066v-2.026c0-3.04-1.689-4.729-4.728-4.729-4.391 0-6.417 2.702-7.768 6.417h12.496zm108.07-13.171c-3.039-2.027-6.417-2.702-10.469-2.702-9.119 0-15.198 7.092-15.198 16.211 0 6.079 4.391 11.145 10.807 11.145 1.689 0 3.04 0 3.715-0.338l2.027-10.132h-8.106l1.351-6.079h15.536l-4.391 20.601c-2.364 1.013-6.417 1.689-10.132 1.689-11.145 0-18.575-5.066-18.575-16.886 0-13.847 9.119-22.29 22.628-22.29 4.39 0 8.781 0.675 12.496 2.026zm29.045 18.237c0 5.066 2.701 7.092 7.767 7.092 3.04 0 5.742-0.675 8.444-2.026l-1.014 5.741c-2.701 1.013-6.079 1.689-8.781 1.689-8.105 0-13.509-4.053-13.509-12.158 0-8.781 6.755-17.224 15.874-17.224 6.754 0 11.482 3.377 11.482 10.807 0 2.026-0.337 4.052-0.675 6.417h-19.588zm13.509-5.066v-2.026c0-3.04-1.689-4.729-4.728-4.729-4.391 0-6.417 2.702-7.768 6.417h12.496zm58.764 0.338c0 9.794-6.755 16.886-16.549 16.886-7.767 0-12.833-4.728-12.833-12.834 0-9.456 7.092-16.548 16.548-16.548 7.43 0.338 12.834 4.728 12.834 12.496zm-7.768 0c0-3.715-1.351-6.755-5.403-6.755-5.742 0-8.781 6.417-8.781 11.483 0 3.715 1.688 6.417 5.741 6.417 5.742 0.337 8.443-6.079 8.443-11.145zm37.488-21.615h7.768l-6.755 32.084h14.86l-1.351 6.079h-22.29zm55.725 33.773c-2.702 3.039-5.066 5.066-9.119 5.066-5.066 0-8.781-2.702-8.781-8.106 0-9.118 10.47-9.794 17.224-9.794h2.702c0.338-0.675 0.338-1.688 0.338-2.364 0-2.702-3.04-3.715-5.742-3.715-3.039 0-6.416 0.676-9.118 2.027l1.013-5.742c3.04-1.013 6.417-1.688 9.456-1.688 5.742 0 10.808 2.026 10.808 8.78 0 3.715-2.702 14.86-3.378 19.926h-6.079zm-7.093-0.338c5.404 0 7.093-3.715 8.106-8.105h-2.702c-3.377 0-9.456 0.675-9.456 5.403 0.337 1.689 2.364 2.702 4.052 2.702zm43.905-19.25c0.337-1.689 0.675-3.04 0.675-4.053h7.092l-0.337 2.702c2.026-1.689 4.728-3.377 7.767-3.377 5.404 0 9.119 3.377 9.119 9.118 0 2.026-0.675 4.391-1.013 6.079l-3.04 13.509h-7.43l2.702-13.171c0.338-2.026 0.676-3.715 0.676-5.741 0-2.364-1.689-4.053-4.053-4.053-5.066 0-6.755 4.728-7.768 8.781l-3.039 14.184h-6.755zm47.957 28.031c3.039 1.351 5.741 2.026 8.781 2.026 7.767 0 8.781-5.403 10.469-11.82-1.688 3.377-5.403 5.403-9.456 5.403-6.755 0-9.794-5.741-9.794-11.82 0-8.443 5.066-16.886 14.184-16.886 3.715 0 6.755 1.688 8.443 4.728l0.676-4.053h7.092c-0.338 0.676-0.675 2.027-1.013 4.053l-4.39 20.939c-1.689 9.119-5.742 15.198-15.874 15.198-3.715 0-7.767-0.676-11.145-2.027zm15.198-27.018c-5.404 0-7.43 6.754-7.43 11.145 0 3.377 1.35 6.079 4.728 6.079 5.741 0 8.105-6.079 8.105-11.483 0-3.377-2.026-5.741-5.403-5.741zm62.141 18.913c-0.338 1.688-0.675 3.039-0.675 4.052h-7.093l0.338-2.702c-2.026 1.689-4.728 3.378-7.768 3.378-5.403 0-9.118-3.378-9.118-9.119 0-2.026 0.675-4.39 1.013-6.079l3.039-13.509h7.43l-2.701 13.171c-0.338 2.027-0.676 3.715-0.676 5.742 0 2.364 1.689 4.052 4.053 4.052 5.066 0 6.754-4.728 7.768-8.781l3.039-14.184h7.43zm43.567-0.338c-2.702 3.039-5.066 5.066-9.119 5.066-5.066 0-8.781-2.702-8.781-8.106 0-9.118 10.47-9.794 17.224-9.794h2.702c0.338-0.675 0.338-1.688 0.338-2.364 0-2.702-3.04-3.715-5.741-3.715-3.04 0-6.417 0.676-9.119 2.027l1.013-5.742c3.04-1.013 6.417-1.688 9.456-1.688 5.742 0 10.808 2.026 10.808 8.78 0 3.715-2.702 14.86-3.378 19.926h-6.079zm-7.093-0.338c5.404 0 7.093-3.715 8.106-8.105h-2.702c-3.377 0-9.456 0.675-9.456 5.403 0.337 1.689 2.364 2.702 4.052 2.702zm39.514 8.781c3.04 1.351 5.742 2.026 8.781 2.026 7.768 0 8.781-5.403 10.47-11.82-1.689 3.377-5.404 5.403-9.457 5.403-6.754 0-9.794-5.741-9.794-11.82 0-8.443 5.066-16.886 14.185-16.886 3.715 0 6.754 1.688 8.443 4.728l0.675-4.053h7.093c-0.338 0.676-0.676 2.027-1.013 4.053l-4.391 20.939c-1.689 9.119-5.741 15.198-15.873 15.198-3.715 0-7.768-0.676-11.145-2.027zm15.536-27.018c-5.404 0-7.43 6.754-7.43 11.145 0 3.377 1.351 6.079 4.728 6.079 5.741 0 8.105-6.079 8.105-11.483-0.337-3.377-2.026-5.741-5.403-5.741zm43.229 11.145c0 5.066 2.702 7.092 7.767 7.092 3.04 0 5.742-0.675 8.444-2.026l-1.014 5.741c-2.701 1.013-6.079 1.689-8.781 1.689-8.105 0-13.509-4.053-13.509-12.158 0-8.781 6.755-17.224 15.874-17.224 6.754 0 11.482 3.377 11.482 10.807 0 2.026-0.337 4.052-0.675 6.417h-19.588zm13.509-5.066v-2.026c0-3.04-1.689-4.729-4.728-4.729-4.391 0-6.417 2.702-7.768 6.417h12.496z" fill="#004489"/><path transform="matrix(1.102 0 0 1 -505.62 465)" d="m3.715 121.92h17.562v87.133h-17.562zm35.461 0h21.614l33.097 65.181h0.3377v-65.181h16.886v87.133h-21.277l-33.435-65.181h-0.3377v65.181h-16.886zm107.06 13.509h-24.991v-13.847h67.545v13.847h-24.992v73.624h-17.562zm53.699-13.509h51.334v13.847h-34.11v21.614h31.071v13.847h-31.071v24.654h34.11v13.847h-51.672v-87.809zm67.883 0h18.912c18.913 0 41.203-0.675 41.203 23.641 0 10.132-6.755 18.575-17.9 20.263v0.338c4.728 0.338 7.43 5.066 9.119 9.119l13.847 34.11h-19.588l-10.47-27.356c-2.364-6.417-4.728-9.118-12.158-9.118h-5.741v36.136h-17.562v-87.133zm17.561 37.15h5.742c8.781 0 18.575-1.351 18.575-12.158 0-10.47-9.794-11.483-18.575-11.483h-5.742zm60.116-37.15h17.561v73.624h33.773v13.847h-51.334zm61.128 0h17.562v87.133h-17.562zm83.081 15.873c-5.404-2.364-11.483-3.715-17.9-3.715-6.079 0-13.847 2.702-13.847 12.158 0 15.198 38.163 8.781 38.163 37.826 0 19.25-15.197 26.342-32.759 26.342-9.456 0-13.847-1.351-22.29-3.377l1.689-15.873c6.079 3.377 12.833 5.403 19.588 5.403 6.754 0 15.535-3.377 15.535-11.144 0-16.549-38.163-9.795-38.163-38.501 0-19.588 15.198-26.681 30.395-26.681 7.43 0 14.523 1.014 20.939 3.04z" fill="#004489"/><path transform="matrix(1.102 0 0 1 -505.62 465)" d="m681.2 213.27 49.142-101.26c-6.417-0.67545-59.32-93.066-66.012-92.131-109.97 15.364-120.97 102.09-127.66 106.74-5.1967 3.6116 18.74 63.709 19.415 69.789 0 0 125.79 17.533 125.12 16.858z" fill="#004489"/><path transform="matrix(1.102 0 0 1 -505.62 465)" d="m714.63 109.08c-46.944 0-85.107 38.163-85.107 85.107 0 5.742 0.78056 7.1973 1.7936 12.263l53.817 7.6682 45.692-33.675 0.69117-69.337c-5.403-1.351-11.145-2.027-16.886-2.027z" fill="#da2520"/></g></g><path transform="matrix(1.2625 0 0 1.2778 2.7925 -6.3888)" d="m12.458 74.508-1.1791-38.907 26.263-30.141 29.923 43.339-0.41418 20.439-14.215 10.012-40.819-4.8601m0.62852 0.44703-7.7844-24.077 10.696-28.336 14.182 19.95m-17.466 31.087 17.158-30.919 27.35-20.57 9.7506 47.187-13.296 9.7157" fill="#6983f6" fill-opacity=".47072" stroke="#11152f" stroke-linejoin="bevel" stroke-width="1.3988"/></svg>
