<svg xmlns="http://www.w3.org/2000/svg" xml:space="preserve" width="580" height="580"><path d="M29.846 446.613v28.024h516.902v-30.024H29.846v2zM47.555 410.506v28.021h461.232v-30.021H47.555v2zM64.668 137.693c-1.313 16.628-2.624 33.256-3.934 49.884 6.888.546 13.775 1.089 20.662 1.633l.028 181.328-18.817.002c.001 11.341.004 22.683.004 34.024 129.705-.02 259.41-.043 389.113-.063 0-11.353-.003-22.707-.004-34.06-34.38.176-68.761.355-103.142.533l-85.781-127.36-2.19-40.283c23.06 1.815 46.121 3.632 69.182 5.446 1.366-17.292 2.73-34.584 4.092-51.875-89.685-7.07-179.37-14.136-269.055-21.201l-.158 1.992zm88.818 57.2.028 175.634-20.045.006-.028-177.221 20.045 1.582zm54.822 4.317 15.41 171.305-18.16.006-.025-171.53 2.775.22zm89.99 171.293-22.546.006a68792.272 68792.272 0 0 1-4.828-40.209l27.375 40.203z" style="fill:#fff"/><path fill="param(fill)" fill-opacity="param(fill-opacity)" stroke="param(outline)" stroke-opacity="param(outline-opacity)" stroke-width="param(outline-width)" d="M54.56 415.511h449.234v18.023H54.56ZM35.845 450.614h504.904v18.023H35.845Z"/><path d="m73.172 144.305-2.83 35.931c6.687.528 13.374 1.053 20.06 1.582.009 65.573.02 131.146.028 196.72l-18.817.003.004 18.024 373.113-.063c0-6.008-.003-12.016-.004-18.023l-99.384.517c-29.801-44.248-59.604-88.495-89.407-132.742-.933-17.206-1.866-34.412-2.802-51.617l70.32 5.539 2.832-35.934c-84.37-6.645-168.746-13.296-253.113-19.937zm55.432 40.521c11.296.89 22.592 1.78 33.888 2.668.008 63.677.02 127.354.027 191.031l-36.044.006c-.008-64.625-.02-129.25-.028-193.875l2.157.17zm72.091 5.68 15.989 1.258c5.599 62.25 11.195 124.5 16.79 186.75-11.636 0-23.273.005-34.91.006l-.025-188.184 2.156.17zm63.98 114.933c16.583 24.354 33.163 48.71 49.747 73.063-14.92 0-29.839.006-44.758.008-2.888-24.069-5.809-48.134-8.673-72.205l-.636-6.86 4.32 5.995z"/><g style="fill:#fff"><path d="M165.354 148.578c-17.051.486-33.86 7.213-46.524 18.643-8.496 7.769-14.907 17.983-17.443 29.269-3.51 15.031-.904 31.528 7.589 44.48 4.96 7.476 12.206 13.694 20.878 16.34 4.424 1.377 9.104 1.628 13.706 1.393 7.958-.29 16.1-2.32 22.553-7.158 4.573-3.434 8.044-8.253 10.045-13.596-.292 5.143-.855 10.269-1.62 15.362-2.886-.039-5.895.504-8.243 2.283-3.627 2.563-5.769 7.053-5.525 11.482-6.82 1.416-12.268 7.685-12.707 14.639-.5 6.12 2.807 12.355 8.119 15.42-.928 4.88 1.226 10.178 5.328 12.994.707.503 1.462.94 2.254 1.295l-23.407 146.412 46.14-34.426c8.843 9.456 17.687 18.91 26.53 28.367l26.7-28.37c15.391 11.487 30.78 22.977 46.173 34.462l-23.629-146.44c4.858-2.154 8.143-7.451 7.746-12.776-.029-.47-.083-.94-.163-1.405 5.64-3.128 9.184-9.77 8.329-16.208-.694-6.07-5.11-11.513-10.909-13.439a14.844 14.844 0 0 0-1.958-.548c.264-4.958-2.453-10.018-6.925-12.273-1.908-1.006-4.072-1.475-6.221-1.503-.485-18.515-3.608-37.183-11.121-54.206-6.153-13.912-15.466-26.637-27.812-35.66-10.968-8.057-24.135-13.037-37.671-14.374a88.75 88.75 0 0 0-10.212-.459z" style="fill:#fff;stroke-width:.542139" transform="translate(237.06 -15.105)"/></g><path d="M188.24 117.359c-16.073.63-31.926 7.37-43.238 18.857-6.637 6.783-11.387 15.476-13.093 24.84-2.21 11.644-.278 24.121 5.726 34.377 3.76 6.383 9.359 11.945 16.404 14.536 5.585 2.04 11.692 1.806 17.492.99 5.935-.9 11.92-3.28 15.96-7.872 5.203-5.927 7.137-14.475 5.255-22.101-1.565-5.804-6.583-10.699-12.597-11.602-3.546-.502-7.29.804-9.676 3.493-1.244 1.316-2.012 2.978-2.976 4.492 1.97.459 4.245.454 5.761 1.992 2.715 2.556 1.827 7.799-1.688 9.169-4.039 1.523-9.19-1.12-10.116-5.384-.27-1.53-.004-3.094-.061-4.64.056-2.23-.044-4.492.316-6.695.964-2.983 2.986-5.513 5.228-7.649 3.39-3.096 7.85-4.874 12.399-5.282 5.54-.644 11.365 1.007 15.565 4.72 6.003 4.966 9.732 12.23 11.502 19.724 1.385 6.142 1.212 12.494.69 18.728-.07.813-.13 1.651-.22 2.511-.125 1.424-.266 2.646-.43 4.083-.528 4.5-1.212 8.979-1.952 13.447-3.117.052-6.272-.211-9.36.259-2.726.973-3.963 4.45-2.754 7.012.834 2.036 1.743 4.04 2.651 6.044-2.975.04-5.965-.107-8.928.197-4.363.518-7.555 5.119-6.858 9.387.586 3.657 3.755 6.541 7.336 7.21 1.298.065 2.823.93 2.763 2.395-.233 1.56-1.53 2.69-1.947 4.198-.904 2.258.446 4.852 2.502 5.935 1.107.665 2.41.734 3.66.814.81.176 1.706.523 2.226 1.18.084 1.142-.35 2.26-.446 3.397-6.944 43.427-13.889 86.855-20.831 130.283l36.084-26.924 25.594 27.365 25.75-27.36 36.06 26.915-21.73-134.686c2.373-.34 5.066.01 7.072-1.562 2.088-1.748 2.406-5.175.644-7.266l-2.23-3.74c2.294-.61 4.675-.977 6.87-1.904 3.973-1.743 5.935-6.904 4.12-10.845-1.582-3.515-5.669-5.441-9.416-4.96-2.517-.15-4.613-3.043-3.532-5.444.668-1.691 1.071-3.728.022-5.358-1.022-1.905-3.315-2.874-5.412-2.553l-6.955.006c-.073-11.28-.644-22.607-2.838-33.695-2.85-14.979-8.289-29.685-17.372-42.037-7.507-10.268-17.67-18.702-29.468-23.568-9.315-3.89-19.452-5.633-29.529-5.429z" style="stroke-width:.542139" transform="translate(214.927 25.137)"/></svg>
